<?xml version="1.0" encoding="utf-8"?>
<svg width="210mm" height="297mm" viewBox="0 0 210 297" version="1.1" id="svg5" xmlns="http://www.w3.org/2000/svg">
  <g id="layer1" transform="matrix(2.017603, 0, 0, 2.017603, -102.482307, -83.679192)" style="">
    <g transform="matrix(0.26458333,0,0,0.26458333,39.872069,53.846485)" id="g67">
      <path d="m 189.347,152.977 c 34.382,0 60.348,4.808 77.9,14.426 17.551,9.617 26.327,26.567 26.327,50.851 0,14.666 -3.426,27.048 -10.278,37.146 -6.853,10.099 -16.65,16.23 -29.393,18.394 v 1.803 c 8.656,1.683 16.47,4.688 23.442,9.016 6.973,4.328 12.503,10.579 16.59,18.754 4.087,8.174 6.131,18.994 6.131,32.458 0,23.322 -8.415,41.595 -25.245,54.818 -16.831,13.224 -39.912,19.836 -69.245,19.836 H 109.283 V 152.977 Z m 6.131,102.063 c 15.869,0 26.868,-2.525 32.999,-7.574 6.131,-5.049 9.197,-12.382 9.197,-21.999 0,-9.858 -3.607,-16.951 -10.82,-21.278 -7.212,-4.328 -18.633,-6.492 -34.261,-6.492 h -28.852 v 57.343 z m -31.737,43.278 v 67.08 h 35.704 c 16.35,0 27.77,-3.186 34.262,-9.557 6.491,-6.372 9.737,-14.847 9.737,-25.426 0,-9.617 -3.306,-17.371 -9.918,-23.262 -6.611,-5.89 -18.573,-8.835 -35.884,-8.835 z" style="fill:#333333" id="path59"/>
      <path d="m 179.564,132.042 c 34.382,0 60.348,4.809 77.9,14.426 17.551,9.617 26.327,26.568 26.327,50.851 0,14.667 -3.426,27.049 -10.278,37.147 -6.853,10.098 -16.65,16.229 -29.393,18.393 v 1.803 c 8.655,1.683 16.469,4.689 23.442,9.017 6.972,4.327 12.502,10.579 16.59,18.753 4.087,8.175 6.131,18.994 6.131,32.458 0,23.322 -8.415,41.595 -25.246,54.819 -16.83,13.224 -39.911,19.835 -69.244,19.835 H 99.5 V 132.042 Z m 6.131,102.063 c 15.868,0 26.868,-2.524 32.999,-7.573 6.131,-5.049 9.197,-12.382 9.197,-22 0,-9.857 -3.607,-16.95 -10.82,-21.278 -7.213,-4.328 -18.633,-6.491 -34.261,-6.491 h -28.852 v 57.342 z m -31.737,43.278 v 67.081 h 35.704 c 16.349,0 27.77,-3.186 34.262,-9.558 6.491,-6.371 9.737,-14.846 9.737,-25.425 0,-9.617 -3.306,-17.371 -9.918,-23.262 -6.612,-5.891 -18.573,-8.836 -35.884,-8.836 z" style="fill:#f5deb3;stroke:#000000" id="path61"/>
      <path d="m 336.61898,75.53712 c 14.14616,3.870094 24.89039,10.610207 32.23147,20.221042 7.34205,9.611098 9.36244,20.446298 6.06313,32.506128 -2.15697,7.88427 -6.27377,14.04945 -12.35013,18.49456 -6.07707,4.44389 -14.66076,6.89364 -25.75302,7.34872 l -0.57104,2.0873 c 10.96028,5.49188 18.26184,12.2875 21.90346,20.38756 3.64135,8.10103 4.35201,16.20895 2.13144,24.32568 -3.74343,13.68317 -11.67941,23.10289 -23.80822,28.26012 -12.1295,5.15599 -28.74627,4.84822 -49.84977,-0.92525 -16.46591,-4.50473 -30.80943,-12.66704 -43.03012,-24.48474 l 8.85087,-32.35214 c 6.21561,6.43736 12.69474,12.13504 19.43855,17.09647 6.74503,4.96072 14.17481,8.55159 22.29154,10.77216 16.23346,4.44113 25.99972,0.63226 29.29904,-11.42757 1.26874,-4.63758 0.44024,-9.35128 -2.48771,-14.14067 -2.92698,-4.78913 -9.84082,-8.67428 -20.74029,-11.65615 l -19.13292,-5.23436 7.42327,-27.1339 15.65472,4.28281 c 11.82738,3.23572 19.94583,3.39985 24.35508,0.49335 4.40926,-2.90649 7.2484,-6.67902 8.51714,-11.3166 1.20541,-4.40608 0.79801,-8.3815 -1.22343,-11.92554 -2.02214,-3.54526 -5.93196,-6.1099 -11.72894,-7.69583 -5.33399,-1.45927 -10.66413,-1.79572 -15.98946,-1.0091 -5.32437,0.78689 -11.86858,2.61063 -19.63098,5.47272 L 278.00375,79.317618 c 8.4166,-3.430608 17.39151,-5.711125 26.92401,-6.842781 9.53224,-1.130691 20.09534,-0.110106 31.69122,3.062283 z" style="fill:#333333" id="path63"/>
      <path d="m 335.58771,55.871946 c 14.14616,3.870094 24.8904,10.610207 32.23244,20.221306 7.34108,9.610835 9.36148,20.446035 6.06216,32.505868 -2.15697,7.88427 -6.27377,14.04944 -12.35013,18.49456 -6.07706,4.44388 -14.66076,6.89363 -25.75327,7.34968 l -0.57078,2.08633 c 10.96028,5.49188 18.26184,12.28751 21.90346,20.38757 3.64135,8.10103 4.35297,16.20921 2.1324,24.32594 -3.74343,13.68317 -11.68038,23.10263 -23.80918,28.25985 -12.12951,5.156 -28.74627,4.84823 -49.84977,-0.92525 -16.46592,-4.50473 -30.80847,-12.66677 -43.03012,-24.48473 l 8.85086,-32.35214 c 6.21561,6.43736 12.69571,12.1353 19.43952,17.09673 6.74406,4.96046 14.17385,8.55133 22.29058,10.77189 16.23346,4.44114 26.00068,0.63253 29.3,-11.4273 1.26874,-4.63758 0.43927,-9.35155 -2.48771,-14.14067 -2.92795,-4.7894 -9.84179,-8.67454 -20.74126,-11.65641 l -19.13195,-5.2341 7.42327,-27.1339 15.65376,4.28254 c 11.82737,3.23573 19.94556,3.40082 24.35508,0.49336 4.40926,-2.9065 7.24839,-6.67902 8.51713,-11.3166 1.20542,-4.406084 0.79802,-8.381498 -1.22342,-11.925539 -2.02145,-3.54404 -5.931,-6.10964 -11.72894,-7.695835 -5.33399,-1.459267 -10.66414,-1.795722 -15.9885,-1.008835 -5.32534,0.786622 -11.86955,2.610365 -19.63194,5.472457 L 276.97249,59.652444 c 8.4166,-3.430608 17.3915,-5.711125 26.92401,-6.842781 9.53224,-1.130691 20.0963,-0.109842 31.69121,3.062283 z" style="fill:#ff0000;stroke:#000000" id="path65"/>
    </g>
  </g>
</svg>