<?xml version="1.0" encoding="utf-8"?>
<svg xmlns="http://www.w3.org/2000/svg" viewBox="0 0 500 500">
  <rect x="128.691" y="315.592" width="209.798" height="46.629" style="stroke: rgb(0, 0, 0); fill: rgb(14, 14, 14);"/>
  <rect x="137.073" y="283.844" width="209.798" height="32.933" style="stroke: rgb(0, 0, 0); fill: rgb(59, 57, 57);"/>
  <rect x="141.415" y="283.354" width="209.798" height="5.541" style="stroke: rgb(0, 0, 0); fill: rgb(14, 14, 14);"/>
  <g transform="matrix(1, 0, 0, 1, 112.445, 46.7894)">
    <rect x="18.146" y="276.777" width="209.798" height="108.672" style="stroke: rgb(0, 0, 0); fill: rgb(8, 8, 8);"/>
    <g transform="matrix(1, 0, 0, 1, -21.303, 51.5972)">
      <path d="M 353.029 127.508 L 350.839 154.868 L 339.009 175.672 L 341.608 222.691 L 350.812 286.939 L 350.65 331.783 L 338.048 342.643 L 319.799 351.53 L 300.892 354.434 L 287.582 354.714 L 287.586 354.93 L 282.451 354.822 L 277.317 354.93 L 277.321 354.714 L 264.01 354.434 L 245.104 351.53 L 226.855 342.643 L 214.253 331.783 L 214.091 286.939 L 223.293 222.691 L 225.894 175.672 L 214.064 154.868 L 211.873 127.508 L 208.307 88.157 L 224.819 83.477 L 230.091 107.453 L 244.646 104.222 L 245.807 73.517 L 266.354 73.606 C 265.291 73.606 268.534 103.387 268.536 103.387 L 282.073 102.222 L 282.074 102.157 L 282.452 102.189 L 282.829 102.157 L 282.829 102.222 L 296.367 103.387 C 296.368 103.387 299.612 73.606 298.549 73.606 L 319.096 73.517 L 320.257 104.222 L 334.811 107.453 L 340.084 83.477 L 356.596 88.157 L 353.029 127.508 Z" style="fill: rgb(49, 49, 49);"/>
      <ellipse style="fill: rgb(28, 28, 28);" cx="282.452" cy="144.799" rx="62.498" ry="26.909"/>
      <path d="M 353.029 126.528 L 350.839 153.888 L 339.009 174.692 L 341.608 221.711 L 350.812 285.959 L 350.649 330.803 L 338.048 341.663 L 319.798 350.55 L 300.892 353.454 L 287.582 353.734 L 287.586 353.95 L 282.451 353.842 L 277.317 353.95 L 277.321 353.734 L 264.011 353.454 L 245.104 350.55 L 226.855 341.663 L 214.253 330.803 L 214.091 285.959 L 223.294 221.711 L 225.894 174.692 L 214.064 153.888 L 211.874 126.528 L 208.307 87.177 L 224.819 82.497 L 230.092 118.473 L 244.646 136.242 L 245.807 105.537 L 266.354 105.626 C 265.291 105.626 268.535 135.407 268.536 135.407 L 282.073 138.242 L 282.074 138.177 L 282.452 138.209 L 282.829 138.177 L 282.829 138.242 L 296.367 135.407 C 296.368 135.407 299.612 105.626 298.549 105.626 L 319.096 105.537 L 320.257 136.242 L 334.81 118.473 L 340.084 82.497 L 356.596 87.177 L 353.029 126.528 Z" style=""/>
    </g>
  </g>
  <g transform="matrix(1, 0, 0, 1, -152.443, 46.7894)">
    <g transform="matrix(1, 0, 0, 1, -21.303, 51.5972)">
      <path d="M 353.029 127.508 L 350.839 154.868 L 339.009 175.672 L 341.608 222.691 L 350.812 286.939 L 350.65 331.783 L 338.048 342.643 L 319.799 351.53 L 300.892 354.434 L 287.582 354.714 L 287.586 354.93 L 282.451 354.822 L 277.317 354.93 L 277.321 354.714 L 264.01 354.434 L 245.104 351.53 L 226.855 342.643 L 214.253 331.783 L 214.091 286.939 L 223.293 222.691 L 225.894 175.672 L 214.064 154.868 L 211.873 127.508 L 208.307 88.157 L 224.819 83.477 L 230.091 107.453 L 244.646 104.222 L 245.807 73.517 L 266.354 73.606 C 265.291 73.606 268.534 103.387 268.536 103.387 L 282.073 102.222 L 282.074 102.157 L 282.452 102.189 L 282.829 102.157 L 282.829 102.222 L 296.367 103.387 C 296.368 103.387 299.612 73.606 298.549 73.606 L 319.096 73.517 L 320.257 104.222 L 334.811 107.453 L 340.084 83.477 L 356.596 88.157 L 353.029 127.508 Z" style="fill: rgb(49, 49, 49);"/>
      <ellipse style="fill: rgb(28, 28, 28);" cx="282.452" cy="144.799" rx="62.498" ry="26.909"/>
      <path d="M 353.029 126.528 L 350.839 153.888 L 339.009 174.692 L 341.608 221.711 L 350.812 285.959 L 350.649 330.803 L 338.048 341.663 L 319.798 350.55 L 300.892 353.454 L 287.582 353.734 L 287.586 353.95 L 282.451 353.842 L 277.317 353.95 L 277.321 353.734 L 264.011 353.454 L 245.104 350.55 L 226.855 341.663 L 214.253 330.803 L 214.091 285.959 L 223.294 221.711 L 225.894 174.692 L 214.064 153.888 L 211.874 126.528 L 208.307 87.177 L 224.819 82.497 L 230.092 118.473 L 244.646 136.242 L 245.807 105.537 L 266.354 105.626 C 265.291 105.626 268.535 135.407 268.536 135.407 L 282.073 138.242 L 282.074 138.177 L 282.452 138.209 L 282.829 138.177 L 282.829 138.242 L 296.367 135.407 C 296.368 135.407 299.612 105.626 298.549 105.626 L 319.096 105.537 L 320.257 136.242 L 334.81 118.473 L 340.084 82.497 L 356.596 87.177 L 353.029 126.528 Z" style=""/>
    </g>
    <g transform="matrix(0.705942, 0, 0, 0.705942, -35.6641, 216.892)" style="">
      <path d="M 378.494 195.97 L 420.105 138.239 L 462.403 195.97 L 462.403 267.701 L 378.494 267.701 L 378.494 195.97 Z" style="stroke: rgb(76, 0, 0); fill: rgb(35, 0, 0);"/>
      <path d="M 470.215 270.863 L 455.191 270.863 L 455.191 199.346 C 437.453 140.281 404.066 140.28 386.329 199.344 L 386.329 270.863 L 370.683 270.863 L 370.683 191.985 C 396.321 116.106 444.578 116.107 470.215 191.988 L 470.215 270.863 Z" style="stroke: rgb(0, 0, 0); fill: rgb(55, 55, 55);"/>
    </g>
  </g>
</svg>