<?xml version="1.0" encoding="utf-8"?>
<svg xmlns="http://www.w3.org/2000/svg" viewBox="0 0 500 500">
  <g transform="matrix(1, 0, 0, 1, 0, 61.8049)"/>
  <g transform="matrix(1, 0, 0, 1, 30.127, 35.2225)">
    <path d="M 77.233 -13.817 L 99.044 -16.367 L 111.184 20.809 L 129.884 20.98 L 131.194 -19.657 L 153.984 -20.937 L 168.084 19.838 L 193.954 21.115 L 206.484 -22.207 L 214.694 -22.728 L 214.684 -23.377 L 219.795 -23.052 L 225.064 -23.387 L 225.054 -22.718 L 233.264 -22.197 L 245.794 21.113 L 271.664 19.843 L 285.754 -20.937 L 308.544 -19.657 L 309.854 20.983 L 328.564 20.813 L 340.694 -16.367 L 362.513 -13.817 L 352.374 72.503 L 308.604 131.097 L 318.724 316.9 L 358.664 376.908 L 360.523 417.488 L 309.414 444.082 L 221.694 452.942 L 218.044 452.942 L 130.334 444.083 L 79.224 417.482 L 81.074 376.906 L 121.024 316.894 L 131.144 131.09 L 87.374 72.503 L 77.233 -13.817 Z" style=""/>
    <path d="M 86.369 -5.568 L 91.866 -7.786 L 105.716 32.551 L 138.431 32.7 L 136.603 -10.647 L 147.976 -11.762 L 163.58 31.707 L 195.704 32.817 L 209.905 -12.865 L 227.842 -12.857 L 242.045 32.816 L 274.169 31.71 L 288.765 -11.762 L 300.136 -10.647 L 299.307 32.701 L 331.032 32.554 L 346.874 -7.786 L 353.379 -5.568 L 339.316 68.514 L 298.191 120.48 L 307.236 327.092 L 342.939 379.285 L 344.602 411.582 L 298.914 434.713 L 220.501 442.421 L 217.24 442.421 L 138.835 434.715 L 93.148 411.576 L 94.803 379.284 L 130.512 327.087 L 139.559 120.474 L 98.434 68.514 L 86.369 -5.568 Z" style="fill: rgb(159, 159, 159);"/>
    <path d="M 154.38 333.829 L 155.28 111.462 L 105.565 61.17 L 93.119 -8.29 L 108.469 32.046 L 143.911 40.239 L 150.729 -12.765 L 165.562 32.289 L 203.459 43.768 L 230.096 -14.361 L 247.299 36.813 L 275.104 38.796 L 303.389 -12.652 L 301.059 31.697 L 330.33 32.271 L 350.631 -5.571 L 336.567 68.51 L 295.442 120.474 L 304.487 327.087 L 340.19 379.282 L 341.853 411.578 L 296.165 434.71 L 217.753 442.416 L 214.491 442.416 L 136.087 434.711 L 90.399 411.573 L 154.38 333.829 Z" style="fill: rgb(109, 109, 109);"/>
    <path d="M 145.901 437.201 L 258.247 408.352 L 278.46 371.685 L 252.469 328.356 L 272.717 116.681 L 331.032 32.555 L 346.874 -7.785 L 353.379 -5.567 L 339.316 68.514 L 298.191 120.48 L 307.236 327.092 L 342.939 379.285 L 344.602 411.582 L 298.914 434.713 L 220.501 442.421 L 145.901 437.201 Z" style="fill: rgb(71, 71, 71);"/>
  </g>
</svg>